<?xml version="1.0" standalone="no"?>
<!DOCTYPE svg PUBLIC "-//W3C//DTD SVG 20010904//EN"
 "http://www.w3.org/TR/2001/REC-SVG-20010904/DTD/svg10.dtd">
<svg version="1.0" xmlns="http://www.w3.org/2000/svg"
 width="1089.000000pt" height="1280.000000pt" viewBox="0 0 1089.000000 1280.000000"
 preserveAspectRatio="xMidYMid meet">
<metadata>
Created by potrace 1.15, written by Peter Selinger 2001-2017
</metadata>
<g transform="translate(0.000000,1280.000000) scale(0.100000,-0.100000)"
fill="#000000" stroke="none">
<path d="M6755 12055 c-1054 -115 -1982 -780 -2439 -1747 -194 -410 -288 -837
-288 -1308 0 -454 85 -853 269 -1265 94 -209 268 -491 411 -665 39 -47 67 -89
63 -95 -36 -47 -1208 -1565 -2802 -3630 -1053 -1364 -1925 -2502 -1939 -2530
-34 -69 -35 -190 -2 -287 61 -177 234 -362 425 -451 118 -56 180 -71 297 -72
99 0 110 2 170 32 36 18 77 45 91 60 19 21 4334 5607 4688 6069 l54 72 66 -30
c1309 -597 2861 -201 3727 948 344 457 546 982 605 1568 17 170 6 554 -19 721
-129 830 -558 1542 -1226 2035 -427 315 -946 516 -1483 575 -172 18 -498 18
-668 0z m648 -410 c417 -49 827 -200 1171 -432 660 -446 1088 -1160 1167
-1946 15 -156 7 -517 -16 -662 -167 -1075 -965 -1943 -2015 -2191 -611 -145
-1236 -73 -1799 207 -1308 649 -1848 2236 -1207 3546 194 396 455 711 801 968
155 115 239 166 406 249 280 139 560 224 869 261 149 18 469 18 623 0z"/>
<path d="M6940 11534 c-515 -44 -938 -202 -1340 -502 -139 -104 -387 -349
-487 -483 -263 -352 -423 -731 -490 -1169 -25 -163 -25 -548 0 -715 148 -982
852 -1788 1799 -2059 349 -100 758 -122 1114 -61 1040 180 1858 990 2049 2029
130 711 -52 1438 -505 2018 -83 106 -280 305 -390 392 -357 286 -755 458
-1225 531 -97 14 -433 27 -525 19z m390 -44 c47 -7 99 -13 115 -15 17 -2 32
-4 35 -5 3 -1 9 -2 13 -1 5 1 25 -3 45 -8 20 -6 47 -12 59 -14 12 -2 25 -6 29
-9 3 -4 12 -4 20 -1 8 3 14 -1 14 -8 0 -7 3 -10 6 -6 3 3 23 -1 45 -8 21 -8
39 -13 39 -11 0 7 147 -46 240 -87 219 -95 407 -222 556 -374 162 -165 270
-344 253 -421 -10 -47 -20 -54 -75 -52 -27 0 -60 1 -74 1 -14 0 -63 6 -110 14
-322 54 -678 38 -1015 -44 -430 -106 -843 -340 -1165 -661 -394 -393 -642
-899 -721 -1470 -21 -146 -17 -507 6 -655 10 -66 20 -140 21 -165 2 -25 5 -62
7 -82 5 -44 -6 -56 -59 -68 -100 -23 -346 150 -529 370 -87 105 -155 213 -224
354 -60 121 -73 153 -112 276 -43 132 -52 165 -55 193 -2 15 -11 55 -19 87 -8
33 -15 63 -14 67 1 4 1 10 0 13 -7 18 -30 343 -26 350 2 4 5 56 6 116 1 60 5
127 10 150 5 22 11 65 14 95 8 83 13 113 25 144 6 15 9 30 6 32 -2 3 2 22 9
44 8 22 14 41 14 44 1 15 14 64 24 90 7 17 12 32 13 35 17 95 146 373 249 541
97 158 193 277 345 430 163 164 236 224 403 334 95 62 379 215 400 215 3 0 18
5 34 12 15 6 33 12 38 14 6 1 34 12 63 22 28 11 52 18 52 16 0 -3 12 2 28 9
24 12 55 21 202 54 19 4 40 8 45 8 6 1 30 5 55 10 25 5 48 8 51 7 4 -1 36 4
72 11 93 17 433 21 537 7z"/>
</g>
</svg>
